<svg viewBox="0 0 576 512" xmlns="http://www.w3.org/2000/svg"><path d="m528.5 171.5-146.4-21.29-65.43-132.4C310.797 5.98 299.36 0 287.89 0c-11.39 0-22.82 5.89-28.7 17.8l-65.43 132.4-146.29 21.3c-26.27 3.8-36.79 36.1-17.75 54.6l105.9 102.1-25.04 145.5C107 495.3 123.6 512 142.2 512c4.932 0 10.01-1.172 14.88-3.75L288 439.6l130.9 68.7c4.865 2.553 9.926 3.713 14.85 3.713 18.61 0 35.21-16.61 31.65-37.41l-25.05-145.5 105.9-102.1C565.3 207.6 554.8 175.3 528.5 171.5zM406.9 294.7l-18.1 17.6 23.83 138.4L288 385.4V68l62.31 126.1 139.2 20.25-82.61 80.35z" fill="#0c0711" class="fill-000000"></path></svg>